<?xml version="1.0" standalone="no"?>
<!DOCTYPE svg PUBLIC "-//W3C//DTD SVG 20010904//EN"
 "http://www.w3.org/TR/2001/REC-SVG-20010904/DTD/svg10.dtd">
<svg version="1.0" xmlns="http://www.w3.org/2000/svg"
 width="100.000000pt" height="100.000000pt" viewBox="0 0 100.000000 100.000000"
 preserveAspectRatio="xMidYMid meet">

<g transform="translate(0.000000,100.000000) scale(0.100000,-0.100000)"
fill="#000000" stroke="none">
<path d="M713 731 c-32 -34 -86 -58 -113 -50 -44 12 -118 9 -166 -7 -42 -14
-47 -14 -64 1 -10 9 -27 15 -38 13 -10 -2 -26 3 -35 10 -14 12 -15 11 -4 -11
9 -19 15 -22 28 -14 20 13 47 3 56 -20 4 -10 15 -24 25 -31 41 -30 15 -71 -47
-73 -22 -1 -30 -4 -17 -6 19 -4 22 -11 23 -51 1 -26 4 -37 6 -24 4 19 11 22
49 22 24 0 44 -4 44 -9 0 -5 -21 -17 -46 -27 l-45 -19 23 -34 c70 -103 229
-89 283 25 37 79 0 180 -81 219 -45 21 -127 16 -152 -9 -16 -16 -16 -17 0 -11
13 5 22 -2 34 -29 27 -56 7 -56 -42 -1 l-43 50 32 14 c52 23 163 19 225 -8 50
-23 162 -128 162 -153 0 -21 -42 -78 -80 -108 -151 -119 -359 -92 -466 62 -21
30 -24 40 -14 58 6 12 21 25 33 30 15 6 -6 9 -69 9 -67 1 -95 5 -104 16 -16
19 -9 45 15 59 11 6 25 17 31 25 6 8 20 12 33 8 13 -3 21 -1 21 8 0 20 -39 7
-82 -27 -68 -53 -41 -98 61 -98 58 0 61 -1 51 -19 -18 -34 -11 -51 41 -107 75
-79 143 -109 244 -109 118 0 199 43 281 150 26 35 26 35 8 64 -35 53 -81 98
-128 126 l-47 28 33 16 c18 8 39 23 46 33 16 21 35 23 51 4 6 -7 22 -11 36 -8
18 3 27 -1 32 -14 4 -11 13 -24 21 -30 25 -19 10 -48 -28 -55 -35 -6 -35 -6
-4 -8 58 -2 69 31 27 85 -19 26 -33 34 -48 32 -12 -3 -27 1 -33 9 -18 18 -38
16 -59 -6z m-193 -126 c0 -55 -12 -58 -32 -6 -17 43 -15 51 14 51 15 0 18 -8
18 -45z m52 39 c8 -7 -23 -84 -34 -84 -4 0 -8 20 -8 45 0 37 3 45 18 45 10 0
21 -3 24 -6z m62 -43 c32 -33 29 -43 -14 -61 -43 -18 -49 -5 -14 33 l29 32
-32 -29 c-18 -16 -36 -26 -40 -23 -8 9 23 77 35 77 5 0 21 -13 36 -29z m-164
-63 c0 -11 -21 -10 -39 1 -8 5 -11 16 -7 26 6 17 8 17 26 0 11 -10 20 -22 20
-27z m210 -19 c0 -16 -7 -19 -45 -19 -55 0 -58 13 -7 33 42 17 52 14 52 -14z
m-251 10 c45 -16 38 -29 -14 -29 -38 0 -45 3 -45 20 0 23 13 25 59 9z m251
-57 c0 -29 -8 -31 -51 -14 -52 20 -49 32 6 32 37 0 45 -3 45 -18z m-210 -19
c0 -4 -12 -21 -27 -37 l-28 -31 32 29 c18 16 36 27 39 23 8 -7 -14 -65 -28
-73 -10 -6 -68 44 -68 58 0 5 15 15 33 23 37 16 47 18 47 8z m157 -5 c41 -15
41 -26 4 -62 -33 -32 -43 -29 -61 14 -18 43 -5 49 33 14 l32 -29 -27 31 c-42
46 -38 53 19 32z m-107 -63 c0 -37 -3 -45 -18 -45 -29 0 -31 8 -14 51 20 52
32 49 32 -6z m42 6 c17 -43 15 -51 -14 -51 -15 0 -18 8 -18 45 0 55 12 58 32
6z"/>
<path d="M248 713 c7 -3 16 -2 19 1 4 3 -2 6 -13 5 -11 0 -14 -3 -6 -6z"/>
</g>
</svg>
